<?xml version="1.0" standalone="no"?>
<!DOCTYPE svg PUBLIC "-//W3C//DTD SVG 20010904//EN"
 "http://www.w3.org/TR/2001/REC-SVG-20010904/DTD/svg10.dtd">
<svg version="1.0" xmlns="http://www.w3.org/2000/svg"
 width="1006.000000pt" height="1006.000000pt" viewBox="0 0 1006.000000 1006.000000"
 preserveAspectRatio="xMidYMid meet">
<metadata>
Created by potrace 1.11, written by Peter Selinger 2001-2013
</metadata>
<g transform="translate(0.000000,1006.000000) scale(0.100000,-0.100000)"
fill="#000000" stroke="none">
<path d="M4749 10056 c-2 -2 -49 -6 -104 -10 -55 -4 -109 -8 -120 -11 -11 -2
-25 -4 -31 -4 -8 -1 -10 -473 -10 -1663 l1 -1663 300 -1 c165 -1 336 -4 380
-8 444 -36 850 -247 1142 -591 183 -216 320 -508 368 -785 4 -19 9 -48 12 -65
3 -16 8 -190 10 -385 3 -195 6 -357 8 -358 3 -3 842 -5 1035 -3 l56 1 -2 348
c0 191 -4 367 -7 392 -4 25 -9 72 -12 106 -3 33 -8 72 -10 85 -3 13 -8 40 -11
59 -3 19 -8 49 -10 65 -10 59 -64 262 -92 345 -65 191 -166 405 -270 575 -31
50 -58 92 -61 95 -3 3 -21 28 -40 55 -214 311 -596 648 -946 834 -177 95 -462
207 -598 236 -10 2 -27 7 -37 10 -10 3 -29 8 -42 10 -67 13 -78 18 -79 33 -4
89 0 1152 4 1159 14 23 393 -58 644 -138 257 -81 591 -233 823 -373 788 -477
1382 -1202 1689 -2065 35 -96 85 -258 96 -307 2 -10 8 -34 14 -51 5 -18 8 -33
6 -33 -3 0 0 -11 5 -26 6 -14 12 -37 15 -52 3 -15 7 -38 10 -52 6 -29 23 -124
29 -160 7 -40 17 -111 31 -225 23 -188 23 -648 0 -805 -2 -14 -6 -50 -10 -80
-9 -72 -11 -88 -29 -195 -89 -516 -291 -1025 -584 -1475 -52 -80 -218 -309
-232 -320 -4 -3 -33 -36 -65 -75 -118 -140 -316 -338 -450 -450 -44 -37 -90
-76 -102 -86 -150 -126 -416 -296 -657 -420 l-151 -78 0 -586 0 -586 25 6 c85
22 402 155 581 245 243 122 577 325 714 435 22 17 56 42 76 56 71 48 245 194
373 313 265 245 490 499 687 776 105 148 239 353 239 366 0 3 8 18 19 32 40
58 149 268 228 442 166 362 304 796 369 1158 17 97 25 143 29 183 3 26 8 57
10 70 3 13 7 55 11 94 3 38 8 79 10 90 24 126 24 851 0 981 -2 11 -7 49 -10
86 -4 37 -9 77 -11 90 -2 13 -6 45 -10 71 -4 27 -8 59 -11 70 -2 12 -9 49 -14
82 -53 300 -147 632 -266 939 -63 162 -64 164 -165 371 -442 909 -1193 1704
-2069 2189 -88 49 -391 201 -416 209 -10 3 -78 30 -151 60 -262 110 -655 229
-893 271 -19 3 -46 8 -60 11 -34 7 -126 23 -175 30 -69 11 -97 14 -205 26 -58
6 -118 13 -135 15 -35 6 -691 15 -696 10z"/>
<path d="M3285 9749 c-44 -16 -89 -33 -100 -39 -11 -5 -72 -30 -135 -56 -310
-129 -600 -294 -974 -554 -50 -35 -175 -132 -275 -215 -195 -161 -423 -389
-633 -633 -55 -64 -197 -250 -276 -362 -200 -285 -399 -655 -537 -1000 -46
-113 -160 -445 -169 -491 -3 -13 -22 -94 -44 -179 -22 -85 -52 -227 -66 -315
-36 -211 -34 -197 -41 -273 -4 -37 -8 -74 -10 -82 -12 -47 -20 -263 -20 -535
0 -275 5 -383 20 -505 2 -19 7 -57 10 -85 9 -73 33 -232 50 -330 41 -231 184
-733 242 -847 7 -15 14 -31 14 -35 5 -36 114 -281 204 -458 300 -589 711
-1113 1210 -1540 39 -33 72 -62 75 -65 21 -23 310 -237 390 -290 12 -8 40 -27
61 -43 21 -15 41 -27 44 -27 2 0 35 -20 72 -44 101 -65 292 -170 429 -237 147
-70 399 -179 417 -179 7 0 17 -4 22 -9 16 -15 340 -117 505 -160 141 -36 356
-82 454 -96 21 -3 48 -7 60 -10 25 -5 83 -12 169 -21 34 -3 73 -7 87 -10 153
-25 837 -25 965 1 11 2 32 4 46 4 l26 1 -1 1662 -1 1663 -280 1 c-258 1 -440
8 -497 19 -13 3 -36 7 -53 10 -16 3 -41 7 -55 9 -210 37 -489 167 -688 320
-143 109 -324 316 -416 474 -123 213 -204 470 -222 708 -4 49 -7 217 -8 374
l-1 285 -545 0 -545 0 1 -355 c1 -321 6 -446 19 -520 2 -14 7 -45 10 -70 4
-25 15 -88 26 -141 95 -466 323 -919 639 -1272 378 -421 863 -716 1394 -847
65 -16 121 -32 124 -35 9 -9 5 -1180 -4 -1178 -5 0 -34 4 -64 8 -30 4 -57 8
-60 10 -3 2 -25 6 -50 10 -25 4 -47 8 -50 10 -3 2 -22 6 -44 9 -98 16 -355 89
-516 148 -197 71 -485 206 -634 297 -38 23 -70 41 -71 41 -7 0 -220 144 -289
195 -663 492 -1158 1177 -1410 1950 -58 178 -124 451 -142 584 -3 25 -8 55
-10 66 -4 19 -11 75 -19 160 -26 248 -25 587 0 825 7 59 14 114 19 145 2 17 8
50 11 75 4 25 9 54 11 65 3 11 11 53 19 93 100 510 344 1063 663 1501 207 285
469 562 712 754 41 32 84 66 95 75 44 37 229 166 296 207 88 53 300 171 364
201 44 22 82 40 84 41 3 2 4 1088 2 1156 -1 23 -11 21 -106 -14z"/>
</g>
</svg>
